<svg xmlns="http://www.w3.org/2000/svg" width="9.234" height="9.234" viewBox="0 0 9.234 9.234"><g opacity="0.523"><path d="M8.044.721h-.83V.289a.289.289,0,1,0-.577,0V.721H2.6V.289a.289.289,0,1,0-.577,0V.721H1.19A1.192,1.192,0,0,0,0,1.912V8.044a1.192,1.192,0,0,0,1.19,1.19H8.044a1.192,1.192,0,0,0,1.19-1.19V1.912A1.192,1.192,0,0,0,8.044.721ZM1.19,1.3h.83v.289a.289.289,0,1,0,.577,0V1.3h4.04v.289a.289.289,0,1,0,.577,0V1.3h.83a.614.614,0,0,1,.613.613V2.6H.577V1.912A.614.614,0,0,1,1.19,1.3ZM8.044,8.657H1.19a.614.614,0,0,1-.613-.613V3.174h8.08v4.87A.614.614,0,0,1,8.044,8.657Z" fill="#fff"/></g></svg>