<svg xmlns="http://www.w3.org/2000/svg" width="12.478" height="16.04" viewBox="0 0 12.478 16.04"><g transform="translate(0)" opacity="0.398"><path d="M126.433.968h2.681v.451h.968V.905a.906.906,0,0,0-.9-.905h-2.808a.906.906,0,0,0-.9.905v.514h.968Zm0,0" transform="translate(-121.534)" fill="#333a41"/><path d="M50.005,167.75H40.916a.426.426,0,0,0-.425.461l.76,9.4a1.009,1.009,0,0,0,1.005.928h6.408a1.009,1.009,0,0,0,1.005-.929l.76-9.4A.426.426,0,0,0,50.005,167.75Zm-6.888,9.783h-.03a.484.484,0,0,1-.483-.454l-.476-7.713a.484.484,0,0,1,.966-.06l.476,7.713A.484.484,0,0,1,43.117,177.533Zm2.833-.483a.484.484,0,0,1-.968,0v-7.713a.484.484,0,1,1,.968,0Zm2.843-7.685-.455,7.713a.484.484,0,0,1-.483.456h-.029a.484.484,0,0,1-.455-.512l.455-7.713a.484.484,0,1,1,.967.057Zm0,0" transform="translate(-39.221 -162.495)" fill="#333a41"/><path d="M12.458,77.585l-.318-.953a.616.616,0,0,0-.584-.421H.923a.615.615,0,0,0-.584.421l-.318.953A.4.4,0,0,0,.4,78.11H12.079a.394.394,0,0,0,.211-.061A.4.4,0,0,0,12.458,77.585Zm0,0" transform="translate(0 -73.823)" fill="#333a41"/></g></svg>